<?xml version="1.0"?>
<svg viewBox="0 0 1920 1080" version="1.1" xmlns="http://www.w3.org/2000/svg">
<line x1="58.750880778155846" y1="386.6666666666668" x2="58.750880778155846" y2="400.00000000000017" stroke="black" stroke-width="2.0"/>
<line x1="58.750880778155846" y1="466.66666666666686" x2="58.750880778155846" y2="480.0000000000002" stroke="black" stroke-width="2.0"/>
<line x1="168.59415608178216" y1="386.6666666666668" x2="168.59415608178216" y2="400.00000000000017" stroke="black" stroke-width="2.0"/>
<line x1="168.59415608178216" y1="466.66666666666686" x2="168.59415608178216" y2="480.0000000000002" stroke="black" stroke-width="2.0"/>
<line x1="109.8432753036263" y1="306.6666666666668" x2="58.750880778155846" y2="320.0000000000001" stroke="black" stroke-width="2.0"/>
<line x1="109.8432753036263" y1="306.6666666666668" x2="168.59415608178216" y2="320.0000000000001" stroke="black" stroke-width="2.0"/>
<line x1="58.750880778155846" y1="546.6666666666669" x2="109.8432753036263" y2="560.0000000000002" stroke="black" stroke-width="2.0"/>
<line x1="168.59415608178216" y1="546.6666666666669" x2="109.8432753036263" y2="560.0000000000002" stroke="black" stroke-width="2.0"/>
<line x1="268.9783260407533" y1="386.6666666666668" x2="268.9783260407533" y2="400.00000000000017" stroke="black" stroke-width="2.0"/>
<line x1="268.9783260407533" y1="466.66666666666686" x2="268.9783260407533" y2="480.0000000000002" stroke="black" stroke-width="2.0"/>
<line x1="367.28358688741974" y1="386.6666666666668" x2="367.28358688741974" y2="400.00000000000017" stroke="black" stroke-width="2.0"/>
<line x1="367.28358688741974" y1="466.66666666666686" x2="367.28358688741974" y2="480.0000000000002" stroke="black" stroke-width="2.0"/>
<line x1="317.991811453919" y1="306.6666666666668" x2="268.9783260407533" y2="320.0000000000001" stroke="black" stroke-width="2.0"/>
<line x1="317.991811453919" y1="306.6666666666668" x2="367.28358688741974" y2="320.0000000000001" stroke="black" stroke-width="2.0"/>
<line x1="268.9783260407533" y1="546.6666666666669" x2="317.991811453919" y2="560.0000000000002" stroke="black" stroke-width="2.0"/>
<line x1="367.28358688741974" y1="546.6666666666669" x2="317.991811453919" y2="560.0000000000002" stroke="black" stroke-width="2.0"/>
<line x1="208.1485361502927" y1="226.66666666666674" x2="109.8432753036263" y2="240.0000000000001" stroke="black" stroke-width="2.0"/>
<line x1="208.1485361502927" y1="226.66666666666674" x2="317.991811453919" y2="240.0000000000001" stroke="black" stroke-width="2.0"/>
<line x1="109.8432753036263" y1="626.6666666666669" x2="208.1485361502927" y2="640.0000000000002" stroke="black" stroke-width="2.0"/>
<line x1="317.991811453919" y1="626.6666666666669" x2="208.1485361502927" y2="640.0000000000002" stroke="black" stroke-width="2.0"/>
<line x1="482.3943963135757" y1="386.6666666666668" x2="482.3943963135757" y2="400.00000000000017" stroke="black" stroke-width="2.0"/>
<line x1="482.3943963135757" y1="466.66666666666686" x2="482.3943963135757" y2="480.0000000000002" stroke="black" stroke-width="2.0"/>
<line x1="624.0977459254593" y1="386.6666666666668" x2="624.0977459254593" y2="400.00000000000017" stroke="black" stroke-width="2.0"/>
<line x1="624.0977459254593" y1="466.66666666666686" x2="624.0977459254593" y2="480.0000000000002" stroke="black" stroke-width="2.0"/>
<line x1="558.0004219124689" y1="306.6666666666668" x2="482.3943963135757" y2="320.0000000000001" stroke="black" stroke-width="2.0"/>
<line x1="558.0004219124689" y1="306.6666666666668" x2="624.0977459254593" y2="320.0000000000001" stroke="black" stroke-width="2.0"/>
<line x1="482.3943963135757" y1="546.6666666666669" x2="558.0004219124689" y2="560.0000000000002" stroke="black" stroke-width="2.0"/>
<line x1="624.0977459254593" y1="546.6666666666669" x2="558.0004219124689" y2="560.0000000000002" stroke="black" stroke-width="2.0"/>
<line x1="775.1975167437542" y1="386.6666666666668" x2="775.1975167437542" y2="400.00000000000017" stroke="black" stroke-width="2.0"/>
<line x1="775.1975167437542" y1="466.66666666666686" x2="775.1975167437542" y2="480.0000000000002" stroke="black" stroke-width="2.0"/>
<line x1="930.5219229450065" y1="386.6666666666668" x2="930.5219229450065" y2="400.00000000000017" stroke="black" stroke-width="2.0"/>
<line x1="930.5219229450065" y1="466.66666666666686" x2="930.5219229450065" y2="480.0000000000002" stroke="black" stroke-width="2.0"/>
<line x1="855.0281777256048" y1="306.6666666666668" x2="775.1975167437542" y2="320.0000000000001" stroke="black" stroke-width="2.0"/>
<line x1="855.0281777256048" y1="306.6666666666668" x2="930.5219229450065" y2="320.0000000000001" stroke="black" stroke-width="2.0"/>
<line x1="775.1975167437542" y1="546.6666666666669" x2="855.0281777256048" y2="560.0000000000002" stroke="black" stroke-width="2.0"/>
<line x1="930.5219229450065" y1="546.6666666666669" x2="855.0281777256048" y2="560.0000000000002" stroke="black" stroke-width="2.0"/>
<line x1="713.3248281137212" y1="226.66666666666674" x2="558.0004219124689" y2="240.0000000000001" stroke="black" stroke-width="2.0"/>
<line x1="713.3248281137212" y1="226.66666666666674" x2="855.0281777256048" y2="240.0000000000001" stroke="black" stroke-width="2.0"/>
<line x1="558.0004219124689" y1="626.6666666666669" x2="713.3248281137212" y2="640.0000000000002" stroke="black" stroke-width="2.0"/>
<line x1="855.0281777256048" y1="626.6666666666669" x2="713.3248281137212" y2="640.0000000000002" stroke="black" stroke-width="2.0"/>
<line x1="505.1762919634285" y1="146.6666666666667" x2="208.1485361502927" y2="160.00000000000006" stroke="black" stroke-width="2.0"/>
<line x1="505.1762919634285" y1="146.6666666666667" x2="713.3248281137212" y2="160.00000000000006" stroke="black" stroke-width="2.0"/>
<line x1="208.1485361502927" y1="706.666666666667" x2="505.1762919634285" y2="720.0000000000001" stroke="black" stroke-width="2.0"/>
<line x1="713.3248281137212" y1="706.666666666667" x2="505.1762919634285" y2="720.0000000000001" stroke="black" stroke-width="2.0"/>
<line x1="1055.3391300853727" y1="386.6666666666668" x2="1055.3391300853727" y2="400.00000000000017" stroke="black" stroke-width="2.0"/>
<line x1="1055.3391300853727" y1="466.66666666666686" x2="1055.3391300853727" y2="480.0000000000002" stroke="black" stroke-width="2.0"/>
<line x1="1144.4146682031553" y1="386.6666666666668" x2="1144.4146682031553" y2="400.00000000000017" stroke="black" stroke-width="2.0"/>
<line x1="1144.4146682031553" y1="466.66666666666686" x2="1144.4146682031553" y2="480.0000000000002" stroke="black" stroke-width="2.0"/>
<line x1="1099.4281220446396" y1="306.6666666666668" x2="1055.3391300853727" y2="320.0000000000001" stroke="black" stroke-width="2.0"/>
<line x1="1099.4281220446396" y1="306.6666666666668" x2="1144.4146682031553" y2="320.0000000000001" stroke="black" stroke-width="2.0"/>
<line x1="1055.3391300853727" y1="546.6666666666669" x2="1099.4281220446396" y2="560.0000000000002" stroke="black" stroke-width="2.0"/>
<line x1="1144.4146682031553" y1="546.6666666666669" x2="1099.4281220446396" y2="560.0000000000002" stroke="black" stroke-width="2.0"/>
<line x1="1232.6016069985808" y1="386.6666666666668" x2="1232.6016069985808" y2="400.00000000000017" stroke="black" stroke-width="2.0"/>
<line x1="1232.6016069985808" y1="466.66666666666686" x2="1232.6016069985808" y2="480.0000000000002" stroke="black" stroke-width="2.0"/>
<line x1="1321.190137580777" y1="386.6666666666668" x2="1321.190137580777" y2="400.00000000000017" stroke="black" stroke-width="2.0"/>
<line x1="1321.190137580777" y1="466.66666666666686" x2="1321.190137580777" y2="480.0000000000002" stroke="black" stroke-width="2.0"/>
<line x1="1277.0921907446182" y1="306.6666666666668" x2="1232.6016069985808" y2="320.0000000000001" stroke="black" stroke-width="2.0"/>
<line x1="1277.0921907446182" y1="306.6666666666668" x2="1321.190137580777" y2="320.0000000000001" stroke="black" stroke-width="2.0"/>
<line x1="1232.6016069985808" y1="546.6666666666669" x2="1277.0921907446182" y2="560.0000000000002" stroke="black" stroke-width="2.0"/>
<line x1="1321.190137580777" y1="546.6666666666669" x2="1277.0921907446182" y2="560.0000000000002" stroke="black" stroke-width="2.0"/>
<line x1="1188.0166526268358" y1="226.66666666666674" x2="1099.4281220446396" y2="240.0000000000001" stroke="black" stroke-width="2.0"/>
<line x1="1188.0166526268358" y1="226.66666666666674" x2="1277.0921907446182" y2="240.0000000000001" stroke="black" stroke-width="2.0"/>
<line x1="1099.4281220446396" y1="626.6666666666669" x2="1188.0166526268358" y2="640.0000000000002" stroke="black" stroke-width="2.0"/>
<line x1="1277.0921907446182" y1="626.6666666666669" x2="1188.0166526268358" y2="640.0000000000002" stroke="black" stroke-width="2.0"/>
<line x1="1417.3813586442548" y1="386.6666666666668" x2="1417.3813586442548" y2="400.00000000000017" stroke="black" stroke-width="2.0"/>
<line x1="1417.3813586442548" y1="466.66666666666686" x2="1417.3813586442548" y2="480.0000000000002" stroke="black" stroke-width="2.0"/>
<line x1="1548.9009467199178" y1="386.6666666666668" x2="1548.9009467199178" y2="400.00000000000017" stroke="black" stroke-width="2.0"/>
<line x1="1548.9009467199178" y1="466.66666666666686" x2="1548.9009467199178" y2="480.0000000000002" stroke="black" stroke-width="2.0"/>
<line x1="1497.2003094024774" y1="306.6666666666668" x2="1417.3813586442548" y2="320.0000000000001" stroke="black" stroke-width="2.0"/>
<line x1="1497.2003094024774" y1="306.6666666666668" x2="1548.9009467199178" y2="320.0000000000001" stroke="black" stroke-width="2.0"/>
<line x1="1417.3813586442548" y1="546.6666666666669" x2="1497.2003094024774" y2="560.0000000000002" stroke="black" stroke-width="2.0"/>
<line x1="1548.9009467199178" y1="546.6666666666669" x2="1497.2003094024774" y2="560.0000000000002" stroke="black" stroke-width="2.0"/>
<line x1="1700.6750886518462" y1="386.6666666666668" x2="1700.6750886518462" y2="400.00000000000017" stroke="black" stroke-width="2.0"/>
<line x1="1700.6750886518462" y1="466.66666666666686" x2="1700.6750886518462" y2="480.0000000000002" stroke="black" stroke-width="2.0"/>
<line x1="1846.3151399127762" y1="386.6666666666668" x2="1846.3151399127762" y2="400.00000000000017" stroke="black" stroke-width="2.0"/>
<line x1="1846.3151399127762" y1="466.66666666666686" x2="1846.3151399127762" y2="480.0000000000002" stroke="black" stroke-width="2.0"/>
<line x1="1774.3599487390702" y1="306.6666666666668" x2="1700.6750886518462" y2="320.0000000000001" stroke="black" stroke-width="2.0"/>
<line x1="1774.3599487390702" y1="306.6666666666668" x2="1846.3151399127762" y2="320.0000000000001" stroke="black" stroke-width="2.0"/>
<line x1="1700.6750886518462" y1="546.6666666666669" x2="1774.3599487390702" y2="560.0000000000002" stroke="black" stroke-width="2.0"/>
<line x1="1846.3151399127762" y1="546.6666666666669" x2="1774.3599487390702" y2="560.0000000000002" stroke="black" stroke-width="2.0"/>
<line x1="1642.8403606634072" y1="226.66666666666674" x2="1497.2003094024774" y2="240.0000000000001" stroke="black" stroke-width="2.0"/>
<line x1="1642.8403606634072" y1="226.66666666666674" x2="1774.3599487390702" y2="240.0000000000001" stroke="black" stroke-width="2.0"/>
<line x1="1497.2003094024774" y1="626.6666666666669" x2="1642.8403606634072" y2="640.0000000000002" stroke="black" stroke-width="2.0"/>
<line x1="1774.3599487390702" y1="626.6666666666669" x2="1642.8403606634072" y2="640.0000000000002" stroke="black" stroke-width="2.0"/>
<line x1="1465.1762919634286" y1="146.6666666666667" x2="1188.0166526268358" y2="160.00000000000006" stroke="black" stroke-width="2.0"/>
<line x1="1465.1762919634286" y1="146.6666666666667" x2="1642.8403606634072" y2="160.00000000000006" stroke="black" stroke-width="2.0"/>
<line x1="1188.0166526268358" y1="706.666666666667" x2="1465.1762919634286" y2="720.0000000000001" stroke="black" stroke-width="2.0"/>
<line x1="1642.8403606634072" y1="706.666666666667" x2="1465.1762919634286" y2="720.0000000000001" stroke="black" stroke-width="2.0"/>
<line x1="960.0000000000001" y1="66.66666666666669" x2="505.1762919634285" y2="80.00000000000001" stroke="black" stroke-width="2.0"/>
<line x1="960.0000000000001" y1="66.66666666666669" x2="1465.1762919634286" y2="80.00000000000001" stroke="black" stroke-width="2.0"/>
<line x1="505.1762919634285" y1="786.6666666666669" x2="960.0000000000001" y2="800" stroke="black" stroke-width="2.0"/>
<line x1="1465.1762919634286" y1="786.6666666666669" x2="960.0000000000001" y2="800" stroke="black" stroke-width="2.0"/>
<rect x="959.1134671876952" y="0" width="1.7730656246098386" height="66.66666666666669" fill="black"/>
<rect x="505.08880970456084" y="80.00000000000001" width="0.174964517735392" height="66.66666666666669" fill="black"/>
<rect x="208.07345295173695" y="160.00000000000006" width="0.1501663971114782" height="66.66666666666669" fill="black"/>
<rect x="109.77094745180655" y="240.0000000000001" width="0.14465570363949734" height="66.66666666666669" fill="black"/>
<rect x="58.63033435845627" y="320.0000000000001" width="0.24109283939916223" height="66.66666666666669" fill="black"/>
<rect x="0" y="400.00000000000017" width="117.50176155631169" height="66.66666666666669" fill="black"/>
<rect x="58.63791156198024" y="480.0000000000002" width="0.22593843235121489" height="66.66666666666669" fill="black"/>
<rect x="168.47016547866258" y="320.0000000000001" width="0.24798120623913827" height="66.66666666666669" fill="black"/>
<rect x="117.50176155631169" y="400.00000000000017" width="102.18478905094092" height="66.66666666666669" fill="black"/>
<rect x="168.54524867721832" y="480.0000000000002" width="0.09781480912766011" height="66.66666666666669" fill="black"/>
<rect x="109.78610185885451" y="560.0000000000002" width="0.11434688954360266" height="66.66666666666669" fill="black"/>
<rect x="317.91466174531126" y="240.0000000000001" width="0.1542994172154638" height="66.66666666666669" fill="black"/>
<rect x="268.9252856160855" y="320.0000000000001" width="0.10608084933563137" height="66.66666666666669" fill="black"/>
<rect x="219.6865506072526" y="400.00000000000017" width="98.58355086700143" height="66.66666666666669" fill="black"/>
<rect x="268.94181769650146" y="480.0000000000002" width="0.07301668850374628" height="66.66666666666669" fill="black"/>
<rect x="367.21608089238794" y="320.0000000000001" width="0.13501199006353085" height="66.66666666666669" fill="black"/>
<rect x="318.27010147425403" y="400.00000000000017" width="98.02697082633136" height="66.66666666666669" fill="black"/>
<rect x="367.2353683195399" y="480.0000000000002" width="0.0964371357596649" height="66.66666666666669" fill="black"/>
<rect x="317.9504812528792" y="560.0000000000002" width="0.08266040207971276" height="66.66666666666669" fill="black"/>
<rect x="208.10651711256884" y="640.0000000000002" width="0.08403807544770797" height="66.66666666666669" fill="black"/>
<rect x="713.2401012015896" y="160.00000000000006" width="0.16945382426341116" height="66.66666666666669" fill="black"/>
<rect x="557.9301605707012" y="240.0000000000001" width="0.1405226835355117" height="66.66666666666669" fill="black"/>
<rect x="482.3392893788559" y="320.0000000000001" width="0.11021386943961702" height="66.66666666666669" fill="black"/>
<rect x="416.2970723005854" y="400.00000000000017" width="132.19464802598063" height="66.66666666666669" fill="black"/>
<rect x="482.311735911496" y="480.0000000000002" width="0.16532080415942552" height="66.66666666666669" fill="black"/>
<rect x="623.914515367516" y="320.0000000000001" width="0.3664611158867266" height="66.66666666666669" fill="black"/>
<rect x="548.491720326566" y="400.00000000000017" width="151.21205119778654" height="66.66666666666669" fill="black"/>
<rect x="624.0267957470076" y="480.0000000000002" width="0.1419003569035069" height="66.66666666666669" fill="black"/>
<rect x="557.8915857163973" y="560.0000000000002" width="0.2176723921432436" height="66.66666666666669" fill="black"/>
<rect x="854.8525243711855" y="240.0000000000001" width="0.35130670883877924" height="66.66666666666669" fill="black"/>
<rect x="775.1003907713106" y="320.0000000000001" width="0.194251944887325" height="66.66666666666669" fill="black"/>
<rect x="699.7037715243525" y="400.00000000000017" width="150.98749043880332" height="66.66666666666669" fill="black"/>
<rect x="775.1079679748345" y="480.0000000000002" width="0.17909753783937765" height="66.66666666666669" fill="black"/>
<rect x="930.379333751419" y="320.0000000000001" width="0.28517838717500904" height="66.66666666666669" fill="black"/>
<rect x="850.691261963156" y="400.00000000000017" width="159.6613219637012" height="66.66666666666669" fill="black"/>
<rect x="930.4413290529787" y="480.0000000000002" width="0.16118778405543988" height="66.66666666666669" fill="black"/>
<rect x="854.9296740797931" y="560.0000000000002" width="0.19700729162331543" height="66.66666666666669" fill="black"/>
<rect x="713.2180584277016" y="640.0000000000002" width="0.21353937203925796" height="66.66666666666669" fill="black"/>
<rect x="505.08192133772087" y="720.0000000000001" width="0.18874125141534415" height="66.66666666666669" fill="black"/>
<rect x="1464.6823960610022" y="80.00000000000001" width="0.9877918048525675" height="66.66666666666669" fill="black"/>
<rect x="1187.935369898124" y="160.00000000000006" width="0.1625654574234351" height="66.66666666666669" fill="black"/>
<rect x="1099.354416519452" y="240.0000000000001" width="0.14741105037548777" height="66.66666666666669" fill="black"/>
<rect x="1055.2158283189372" y="320.0000000000001" width="0.24660353287114306" height="66.66666666666669" fill="black"/>
<rect x="1010.352583926857" y="400.00000000000017" width="89.97309231703134" height="66.66666666666669" fill="black"/>
<rect x="1055.2516478265052" y="480.0000000000002" width="0.174964517735392" height="66.66666666666669" fill="black"/>
<rect x="1144.3278747809716" y="320.0000000000001" width="0.1735868443673968" height="66.66666666666669" fill="black"/>
<rect x="1100.3256762438884" y="400.00000000000017" width="88.17798391853358" height="66.66666666666669" fill="black"/>
<rect x="1144.3740268387994" y="480.0000000000002" width="0.08128272871171754" height="66.66666666666669" fill="black"/>
<rect x="1099.3661267430798" y="560.0000000000002" width="0.12399060311956914" height="66.66666666666669" fill="black"/>
<rect x="1276.9971312822265" y="240.0000000000001" width="0.19011892478333936" height="66.66666666666669" fill="black"/>
<rect x="1232.549255410597" y="320.0000000000001" width="0.10470317596763616" height="66.66666666666669" fill="black"/>
<rect x="1188.503660162422" y="400.00000000000017" width="88.19589367231752" height="66.66666666666669" fill="black"/>
<rect x="1232.561654470909" y="480.0000000000002" width="0.07990505534372233" height="66.66666666666669" fill="black"/>
<rect x="1321.1088548520652" y="320.0000000000001" width="0.1625654574234351" height="66.66666666666669" fill="black"/>
<rect x="1276.6995538347396" y="400.00000000000017" width="88.9811674920748" height="66.66666666666669" fill="black"/>
<rect x="1321.1508738897892" y="480.0000000000002" width="0.07852738197572712" height="66.66666666666669" fill="black"/>
<rect x="1277.0487940335263" y="560.0000000000002" width="0.0867934221836984" height="66.66666666666669" fill="black"/>
<rect x="1187.9691228956399" y="640.0000000000002" width="0.09505946239166968" height="66.66666666666669" fill="black"/>
<rect x="1642.7604556080635" y="160.00000000000006" width="0.15981011068744466" height="66.66666666666669" fill="black"/>
<rect x="1497.1300480607097" y="240.0000000000001" width="0.1405226835355117" height="66.66666666666669" fill="black"/>
<rect x="1417.3276293829028" y="320.0000000000001" width="0.10745852270362659" height="66.66666666666669" fill="black"/>
<rect x="1365.6807213268144" y="400.00000000000017" width="103.40127463488069" height="66.66666666666669" fill="black"/>
<rect x="1417.3310735663229" y="480.0000000000002" width="0.10057015586365052" height="66.66666666666669" fill="black"/>
<rect x="1548.796932380634" y="320.0000000000001" width="0.2080286785672771" height="66.66666666666669" fill="black"/>
<rect x="1469.0819959616952" y="400.00000000000017" width="159.63790151644528" height="66.66666666666669" fill="black"/>
<rect x="1548.825174684678" y="480.0000000000002" width="0.1515440704794734" height="66.66666666666669" fill="black"/>
<rect x="1497.0384327817378" y="560.0000000000002" width="0.32375324147887496" height="66.66666666666669" fill="black"/>
<rect x="1774.2166707087988" y="240.0000000000001" width="0.28655606054300425" height="66.66666666666669" fill="black"/>
<rect x="1700.5696966391947" y="320.0000000000001" width="0.21078402530326754" height="66.66666666666669" fill="black"/>
<rect x="1628.7198974781404" y="400.00000000000017" width="143.9103823474119" height="66.66666666666669" fill="black"/>
<rect x="1700.5855398829267" y="480.0000000000002" width="0.17909753783937765" height="66.66666666666669" fill="black"/>
<rect x="1846.1808167593967" y="320.0000000000001" width="0.2686463067590665" height="66.66666666666669" fill="black"/>
<rect x="1772.6302798255522" y="400.00000000000017" width="147.3697201744479" height="66.66666666666669" fill="black"/>
<rect x="1846.2448785710085" y="480.0000000000002" width="0.1405226835355117" height="66.66666666666669" fill="black"/>
<rect x="1774.2421576661066" y="560.0000000000002" width="0.23558214592718138" height="66.66666666666669" fill="black"/>
<rect x="1642.6784840426678" y="640.0000000000002" width="0.32375324147887496" height="66.66666666666669" fill="black"/>
<rect x="1464.9730851416493" y="720.0000000000001" width="0.4064136435585877" height="66.66666666666669" fill="black"/>
<rect x="959.8911638039284" y="800" width="0.2176723921432436" height="66.66666666666669" fill="black"/>
<rect x="192" y="933.3333333333334" width="0.8142049604851707" height="66.66666666666669" fill="black"/>
<rect x="192.81420496048517" y="933.3333333333334" width="0.09368178902367447" height="66.66666666666669" fill="black"/>
<rect x="192.90788674950886" y="933.3333333333334" width="0.09368178902367447" height="66.66666666666669" fill="black"/>
<rect x="193.00156853853252" y="933.3333333333334" width="0.11159154280761223" height="66.66666666666669" fill="black"/>
<rect x="193.11316008134014" y="933.3333333333334" width="0.06888366839976064" height="66.66666666666669" fill="black"/>
<rect x="192" y="1013.3333333333334" width="56.746366027722814" height="66.66666666666669" fill="black"/>
<rect x="248.74636602772281" y="1013.3333333333334" width="0.39814760335061644" height="66.66666666666669" fill="black"/>
<rect x="249.14451363107344" y="1013.3333333333334" width="0.09368178902367447" height="66.66666666666669" fill="black"/>
<rect x="249.2381954200971" y="1013.3333333333334" width="0.09230411565567925" height="66.66666666666669" fill="black"/>
<rect x="249.33049953575278" y="1013.3333333333334" width="0.07852738197572712" height="66.66666666666669" fill="black"/>
<rect x="193.1820437497399" y="933.3333333333334" width="0.0757720352397367" height="66.66666666666669" fill="black"/>
<rect x="193.25781578497964" y="933.3333333333334" width="0.556580040670066" height="66.66666666666669" fill="black"/>
<rect x="193.8143958256497" y="933.3333333333334" width="0.044085547775846806" height="66.66666666666669" fill="black"/>
<rect x="249.4090269177285" y="1013.3333333333334" width="0.0771497086077319" height="66.66666666666669" fill="black"/>
<rect x="249.48617662633626" y="1013.3333333333334" width="0.3554397289427649" height="66.66666666666669" fill="black"/>
<rect x="249.841616355279" y="1013.3333333333334" width="0.04546322114384202" height="66.66666666666669" fill="black"/>
<rect x="193.85848137342555" y="933.3333333333334" width="0.044085547775846806" height="66.66666666666669" fill="black"/>
<rect x="193.90256692120138" y="933.3333333333334" width="0.11296921617560744" height="66.66666666666669" fill="black"/>
<rect x="194.015536137377" y="933.3333333333334" width="0.15843243731944945" height="66.66666666666669" fill="black"/>
<rect x="194.17396857469646" y="933.3333333333334" width="0.1735868443673968" height="66.66666666666669" fill="black"/>
<rect x="194.34755541906384" y="933.3333333333334" width="0.09230411565567925" height="66.66666666666669" fill="black"/>
<rect x="249.88707957642285" y="1013.3333333333334" width="0.04821856787983245" height="66.66666666666669" fill="black"/>
<rect x="249.9352981443027" y="1013.3333333333334" width="0.11159154280761223" height="66.66666666666669" fill="black"/>
<rect x="250.0468896871103" y="1013.3333333333334" width="0.1501663971114782" height="66.66666666666669" fill="black"/>
<rect x="250.19705608422177" y="1013.3333333333334" width="0.09230411565567925" height="66.66666666666669" fill="black"/>
<rect x="250.28936019987745" y="1013.3333333333334" width="0.04684089451183723" height="66.66666666666669" fill="black"/>
<rect x="194.43985953471952" y="933.3333333333334" width="0.044085547775846806" height="66.66666666666669" fill="black"/>
<rect x="194.48394508249538" y="933.3333333333334" width="0.14741105037548777" height="66.66666666666669" fill="black"/>
<rect x="194.63135613287088" y="933.3333333333334" width="0.044085547775846806" height="66.66666666666669" fill="black"/>
<rect x="250.33620109438928" y="1013.3333333333334" width="0.05648460808780372" height="66.66666666666669" fill="black"/>
<rect x="250.3926857024771" y="1013.3333333333334" width="0.1542994172154638" height="66.66666666666669" fill="black"/>
<rect x="250.54698511969255" y="1013.3333333333334" width="0.04546322114384202" height="66.66666666666669" fill="black"/>
<rect x="250.5924483408364" y="1013.3333333333334" width="0.044085547775846806" height="66.66666666666669" fill="black"/>
<rect x="250.63653388861226" y="1013.3333333333334" width="0.053729261351813294" height="66.66666666666669" fill="black"/>
<rect x="250.69026314996407" y="1013.3333333333334" width="0.053729261351813294" height="66.66666666666669" fill="black"/>
<rect x="250.74399241131587" y="1013.3333333333334" width="0.18598590467935372" height="66.66666666666669" fill="black"/>
<rect x="250.92997831599524" y="1013.3333333333334" width="0.09230411565567925" height="66.66666666666669" fill="black"/>
<rect x="251.02228243165092" y="1013.3333333333334" width="0.07852738197572712" height="66.66666666666669" fill="black"/>
<rect x="251.10080981362663" y="1013.3333333333334" width="0.04270787440785159" height="66.66666666666669" fill="black"/>
<rect x="194.6754416806467" y="933.3333333333334" width="0.044085547775846806" height="66.66666666666669" fill="black"/>
<rect x="194.71952722842255" y="933.3333333333334" width="0.04959624124782766" height="66.66666666666669" fill="black"/>
<rect x="194.76912346967038" y="933.3333333333334" width="0.04959624124782766" height="66.66666666666669" fill="black"/>
<rect x="194.8187197109182" y="933.3333333333334" width="0.22318308561522446" height="66.66666666666669" fill="black"/>
<rect x="195.04190279653344" y="933.3333333333334" width="0.10470317596763616" height="66.66666666666669" fill="black"/>
<rect x="195.14660597250108" y="933.3333333333334" width="0.08128272871171754" height="66.66666666666669" fill="black"/>
<rect x="195.22788870121278" y="933.3333333333334" width="0.044085547775846806" height="66.66666666666669" fill="black"/>
<rect x="251.14351768803448" y="1013.3333333333334" width="0.04546322114384202" height="66.66666666666669" fill="black"/>
<rect x="251.18898090917833" y="1013.3333333333334" width="0.18598590467935372" height="66.66666666666669" fill="black"/>
<rect x="251.3749668138577" y="1013.3333333333334" width="0.044085547775846806" height="66.66666666666669" fill="black"/>
<rect x="195.27197424898864" y="933.3333333333334" width="0.0867934221836984" height="66.66666666666669" fill="black"/>
<rect x="195.35876767117233" y="933.3333333333334" width="0.4119243370305686" height="66.66666666666669" fill="black"/>
<rect x="195.7706920082029" y="933.3333333333334" width="0.08266040207971276" height="66.66666666666669" fill="black"/>
<rect x="251.41905236163353" y="1013.3333333333334" width="0.17909753783937765" height="66.66666666666669" fill="black"/>
<rect x="251.5981498994729" y="1013.3333333333334" width="0.16669847752742073" height="66.66666666666669" fill="black"/>
<rect x="251.76484837700033" y="1013.3333333333334" width="0.38299319630266915" height="66.66666666666669" fill="black"/>
<rect x="252.147841573303" y="1013.3333333333334" width="0.2906890806469899" height="66.66666666666669" fill="black"/>
<rect x="252.43853065394998" y="1013.3333333333334" width="0.08266040207971276" height="66.66666666666669" fill="black"/>
<rect x="195.8533524102826" y="933.3333333333334" width="0.08266040207971276" height="66.66666666666669" fill="black"/>
<rect x="195.93601281236232" y="933.3333333333334" width="0.10745852270362659" height="66.66666666666669" fill="black"/>
<rect x="196.04347133506596" y="933.3333333333334" width="0.369216462622717" height="66.66666666666669" fill="black"/>
<rect x="196.41268779768868" y="933.3333333333334" width="0.23144912582319574" height="66.66666666666669" fill="black"/>
<rect x="196.64413692351187" y="933.3333333333334" width="0.08266040207971276" height="66.66666666666669" fill="black"/>
<rect x="252.5211910560297" y="1013.3333333333334" width="0.09092644228768404" height="66.66666666666669" fill="black"/>
<rect x="252.6121174983174" y="1013.3333333333334" width="0.40090295008660687" height="66.66666666666669" fill="black"/>
<rect x="253.01302044840398" y="1013.3333333333334" width="0.07990505534372233" height="66.66666666666669" fill="black"/>
<rect x="196.72679732559158" y="933.3333333333334" width="0.07990505534372233" height="66.66666666666669" fill="black"/>
<rect x="196.8067023809353" y="933.3333333333334" width="0.3292639349508558" height="66.66666666666669" fill="black"/>
<rect x="197.13596631588615" y="933.3333333333334" width="0.08266040207971276" height="66.66666666666669" fill="black"/>
<rect x="253.09292550374772" y="1013.3333333333334" width="0.0964371357596649" height="66.66666666666669" fill="black"/>
<rect x="253.18936263950738" y="1013.3333333333334" width="7.862381911148679" height="66.66666666666669" fill="black"/>
<rect x="261.05174455065605" y="1013.3333333333334" width="0.12399060311956914" height="66.66666666666669" fill="black"/>
<rect x="261.17573515377563" y="1013.3333333333334" width="0.24247051276715742" height="66.66666666666669" fill="black"/>
<rect x="197.21862671796586" y="933.3333333333334" width="0.18047521120737287" height="66.66666666666669" fill="black"/>
<rect x="197.39910192917324" y="933.3333333333334" width="0.21078402530326754" height="66.66666666666669" fill="black"/>
<rect x="197.6098859544765" y="933.3333333333334" width="0.11434688954360266" height="66.66666666666669" fill="black"/>
<rect x="197.72423284402012" y="933.3333333333334" width="0.16669847752742073" height="66.66666666666669" fill="black"/>
<rect x="197.89093132154753" y="933.3333333333334" width="0.33201928168684625" height="66.66666666666669" fill="black"/>
<rect x="261.4182056665428" y="1013.3333333333334" width="38.57209895712997" height="66.66666666666669" fill="black"/>
<g id="tasks_colors_max">
<rect class="task6427592834436527677" id="5_1" x="0" y="400.00000000000017" width="0" height="66.66666666666669" fill="rgba(255,0,0,0.8502638058389026)">
<animate attributeType="XML" attributeName="width" from="0" to="117.50176155631169" begin="214ms" dur="6886ms" fill="freeze"/>
</rect>
<rect class="task6427592834436527677" id="8_1" x="117.50176155631169" y="400.00000000000017" width="0" height="66.66666666666669" fill="rgba(255,0,0,0.9177560265329235)">
<animate attributeType="XML" attributeName="width" from="0" to="102.18478905094092" begin="7168ms" dur="5988ms" fill="freeze"/>
</rect>
<rect class="task6427592834436527677" id="13_1" x="219.6865506072526" y="400.00000000000017" width="0" height="66.66666666666669" fill="rgba(255,0,0,0.9366695547667626)">
<animate attributeType="XML" attributeName="width" from="0" to="98.58355086700143" begin="13219ms" dur="5777ms" fill="freeze"/>
</rect>
<rect class="task6427592834436527677" id="16_1" x="318.27010147425403" y="400.00000000000017" width="0" height="66.66666666666669" fill="rgba(255,0,0,0.9397166708828737)">
<animate attributeType="XML" attributeName="width" from="0" to="98.02697082633136" begin="19022ms" dur="5745ms" fill="freeze"/>
</rect>
<rect class="task6427592834436527677" id="23_1" x="416.2970723005854" y="400.00000000000017" width="0" height="66.66666666666669" fill="rgba(255,0,0,0.8002188525871503)">
<animate attributeType="XML" attributeName="width" from="0" to="132.19464802598063" begin="24842ms" dur="7747ms" fill="freeze"/>
</rect>
<rect class="task6427592834436527677" id="26_1" x="548.491720326566" y="400.00000000000017" width="0" height="66.66666666666669" fill="rgba(255,0,0,0.749884747492233)">
<animate attributeType="XML" attributeName="width" from="0" to="151.21205119778654" begin="32655ms" dur="8862ms" fill="freeze"/>
</rect>
<rect class="task6427592834436527677" id="31_1" x="699.7037715243525" y="400.00000000000017" width="0" height="66.66666666666669" fill="rgba(255,0,0,0.7504051242746086)">
<animate attributeType="XML" attributeName="width" from="0" to="150.98749043880332" begin="41621ms" dur="8848ms" fill="freeze"/>
</rect>
<rect class="task6427592834436527677" id="34_1" x="850.691261963156" y="400.00000000000017" width="0" height="66.66666666666669" fill="rgba(255,0,0,0.7313688606633764)">
<animate attributeType="XML" attributeName="width" from="0" to="159.6613219637012" begin="50526ms" dur="9357ms" fill="freeze"/>
</rect>
<rect class="task6427592834436527677" id="43_1" x="1010.352583926857" y="400.00000000000017" width="0" height="66.66666666666669" fill="rgba(0,255,0,0.9880290316653396)">
<animate attributeType="XML" attributeName="width" from="0" to="89.97309231703134" begin="3455ms" dur="5273ms" fill="freeze"/>
</rect>
<rect class="task6427592834436527677" id="46_1" x="1100.3256762438884" y="400.00000000000017" width="0" height="66.66666666666669" fill="rgba(0,255,0,1)">
<animate attributeType="XML" attributeName="width" from="0" to="88.17798391853358" begin="8776ms" dur="5167ms" fill="freeze"/>
</rect>
<rect class="task6427592834436527677" id="51_1" x="1188.503660162422" y="400.00000000000017" width="0" height="66.66666666666669" fill="rgba(0,255,0,0.9998781592677061)">
<animate attributeType="XML" attributeName="width" from="0" to="88.19589367231752" begin="13999ms" dur="5168ms" fill="freeze"/>
</rect>
<rect class="task6427592834436527677" id="54_1" x="1276.6995538347396" y="400.00000000000017" width="0" height="66.66666666666669" fill="rgba(0,255,0,0.9945841332755311)">
<animate attributeType="XML" attributeName="width" from="0" to="88.9811674920748" begin="19198ms" dur="5214ms" fill="freeze"/>
</rect>
<rect class="task6427592834436527677" id="61_1" x="1365.6807213268144" y="400.00000000000017" width="0" height="66.66666666666669" fill="rgba(0,255,0,0.9116647791619479)">
<animate attributeType="XML" attributeName="width" from="0" to="103.40127463488069" begin="24484ms" dur="6059ms" fill="freeze"/>
</rect>
<rect class="task6427592834436527677" id="64_1" x="1469.0819959616952" y="400.00000000000017" width="0" height="66.66666666666669" fill="rgba(0,255,0,0.7314174757281553)">
<animate attributeType="XML" attributeName="width" from="0" to="159.63790151644528" begin="30578ms" dur="9355ms" fill="freeze"/>
</rect>
<rect class="task6427592834436527677" id="69_1" x="1628.7198974781404" y="400.00000000000017" width="0" height="66.66666666666669" fill="rgba(0,255,0,0.7676370633454274)">
<animate attributeType="XML" attributeName="width" from="0" to="143.9103823474119" begin="40056ms" dur="8434ms" fill="freeze"/>
</rect>
<rect class="task6427592834436527677" id="72_1" x="1772.6302798255522" y="400.00000000000017" width="0" height="66.66666666666669" fill="rgba(0,255,0,0.7590071982798916)">
<animate attributeType="XML" attributeName="width" from="0" to="147.3697201744479" begin="48549ms" dur="8636ms" fill="freeze"/>
</rect>
</g>
</svg>
